<svg id="wave" style="transform:rotate(0deg); transition: 0.3s" viewBox="0 0 1440 120" version="1.1" xmlns="http://www.w3.org/2000/svg"><defs><linearGradient id="sw-gradient-0" x1="0" x2="0" y1="1" y2="0"><stop stop-color="rgba(2, 27, 121, 1)" offset="0%"></stop><stop stop-color="rgba(38.603, 102.134, 143.758, 1)" offset="100%"></stop></linearGradient></defs><path style="transform:translate(0, 0px); opacity:1" fill="url(#sw-gradient-0)" d="M0,96L24,84C48,72,96,48,144,44C192,40,240,56,288,66C336,76,384,80,432,72C480,64,528,44,576,38C624,32,672,40,720,46C768,52,816,56,864,48C912,40,960,20,1008,16C1056,12,1104,24,1152,36C1200,48,1248,60,1296,62C1344,64,1392,56,1440,58C1488,60,1536,72,1584,78C1632,84,1680,84,1728,82C1776,80,1824,76,1872,68C1920,60,1968,48,2016,50C2064,52,2112,68,2160,72C2208,76,2256,68,2304,62C2352,56,2400,52,2448,42C2496,32,2544,16,2592,14C2640,12,2688,24,2736,28C2784,32,2832,28,2880,28C2928,28,2976,32,3024,44C3072,56,3120,76,3168,88C3216,100,3264,104,3312,106C3360,108,3408,108,3432,108L3456,108L3456,120L3432,120C3408,120,3360,120,3312,120C3264,120,3216,120,3168,120C3120,120,3072,120,3024,120C2976,120,2928,120,2880,120C2832,120,2784,120,2736,120C2688,120,2640,120,2592,120C2544,120,2496,120,2448,120C2400,120,2352,120,2304,120C2256,120,2208,120,2160,120C2112,120,2064,120,2016,120C1968,120,1920,120,1872,120C1824,120,1776,120,1728,120C1680,120,1632,120,1584,120C1536,120,1488,120,1440,120C1392,120,1344,120,1296,120C1248,120,1200,120,1152,120C1104,120,1056,120,1008,120C960,120,912,120,864,120C816,120,768,120,720,120C672,120,624,120,576,120C528,120,480,120,432,120C384,120,336,120,288,120C240,120,192,120,144,120C96,120,48,120,24,120L0,120Z"></path><defs><linearGradient id="sw-gradient-1" x1="0" x2="0" y1="1" y2="0"><stop stop-color="rgba(2, 27, 121, 1)" offset="0%"></stop><stop stop-color="rgba(2, 27, 121, 1)" offset="100%"></stop></linearGradient></defs><path style="transform:translate(0, 50px); opacity:0.9" fill="url(#sw-gradient-1)" d="M0,60L24,56C48,52,96,44,144,44C192,44,240,52,288,46C336,40,384,20,432,18C480,16,528,32,576,42C624,52,672,56,720,50C768,44,816,28,864,18C912,8,960,4,1008,14C1056,24,1104,48,1152,56C1200,64,1248,56,1296,46C1344,36,1392,24,1440,24C1488,24,1536,36,1584,52C1632,68,1680,88,1728,90C1776,92,1824,76,1872,76C1920,76,1968,92,2016,84C2064,76,2112,44,2160,40C2208,36,2256,60,2304,76C2352,92,2400,100,2448,98C2496,96,2544,84,2592,80C2640,76,2688,80,2736,70C2784,60,2832,36,2880,32C2928,28,2976,44,3024,46C3072,48,3120,36,3168,28C3216,20,3264,16,3312,28C3360,40,3408,68,3432,82L3456,96L3456,120L3432,120C3408,120,3360,120,3312,120C3264,120,3216,120,3168,120C3120,120,3072,120,3024,120C2976,120,2928,120,2880,120C2832,120,2784,120,2736,120C2688,120,2640,120,2592,120C2544,120,2496,120,2448,120C2400,120,2352,120,2304,120C2256,120,2208,120,2160,120C2112,120,2064,120,2016,120C1968,120,1920,120,1872,120C1824,120,1776,120,1728,120C1680,120,1632,120,1584,120C1536,120,1488,120,1440,120C1392,120,1344,120,1296,120C1248,120,1200,120,1152,120C1104,120,1056,120,1008,120C960,120,912,120,864,120C816,120,768,120,720,120C672,120,624,120,576,120C528,120,480,120,432,120C384,120,336,120,288,120C240,120,192,120,144,120C96,120,48,120,24,120L0,120Z"></path></svg>